<svg id="Layer_1" data-name="Layer 1" xmlns="http://www.w3.org/2000/svg" viewBox="0 0 370.72 370.72">
  <defs>
    <style>.cls-1{fill:#32a8c6;}.cls-2{fill:#fff;}</style>
  </defs>
  <title>StarTelecomLogoBlue</title>
  <circle class="cls-1" cx="185.36" cy="185.36" r="185.36" />
  <path class="cls-2" transform="translate(10 10)" d="M179.2,173.1c37.75,1.75,63.32-41,63.32-41-12.1,12-31.23,13.71-31.23,13.71,22.56-64.48-33.93-97.14-33.93-97.14C233.37,112.26,179.2,173.1,179.2,173.1ZM174.39,171C187.72,135.66,155,98.13,155,98.13c7.72,15.23,3.4,33.94,3.4,33.94C104,90.69,55.51,134.32,55.51,134.32,133.27,100.69,174.39,171,174.39,171Zm-3.46,3.93c-29.51-23.6-75.31-4.06-75.31-4.06,16.86-2.63,33.32,7.26,33.32,7.26-56.15,38.91-29.65,98.53-29.65,98.53C91.34,192.32,170.93,174.94,170.93,174.94Zm2.66,4.51c-31.56,20.77-27.13,70.37-27.13,70.37,2.71-16.85,17.2-29.45,17.2-29.45C183.31,285.8,248.21,279,248.21,279,165.53,260.51,173.59,179.45,173.59,179.45Zm5.12-1.14c10,36.44,58.54,47.56,58.54,47.56-15.19-7.79-22.7-25.47-22.7-25.47,68.3,1.53,81.9-62.28,81.9-62.28C253.31,211,178.71,178.31,178.71,178.31Z" />

</svg>
