<svg id="Layer_1" data-name="Layer 1" xmlns="http://www.w3.org/2000/svg" viewBox="0 0 908 368"><defs><style>.cls-1{fill:#505050;}</style></defs><title>Artboard 1</title><path class="cls-1" d="M669.25,91.48a29.85,29.85,0,0,0,26.34-29.67V41.71A39.82,39.82,0,0,0,655.82,1.93H596.15a9.94,9.94,0,0,0-9.95,10V161.05h19.89V100l32.69-4.41,37.49,65.47h22.92L660.06,92.72ZM606.09,79.92V21.82h49.73A19.91,19.91,0,0,1,675.7,41.71v20.1a10,10,0,0,1-8.82,9.92l-.2,0ZM510,1.93H483.44a10,10,0,0,0-9.5,7L426.61,161.05h20.83l15.47-49.73h67.57L546,161.05h20.83L519.45,8.92A9.94,9.94,0,0,0,510,1.93ZM469.1,91.44l21.66-69.62h11.88l21.65,69.62Zm-187.9-20L216.83,62a10,10,0,0,1-8.53-9.88V41.71a19.91,19.91,0,0,1,19.89-19.89h49.72a10,10,0,0,0,9.95-9.94v-10H228.19a39.82,39.82,0,0,0-39.78,39.78V52.12A30,30,0,0,0,214,81.68l64.55,9.5.44.06a9.94,9.94,0,0,1,8.95,9.89l-.08,20.14a19.92,19.92,0,0,1-19.89,19.89H198.35a9.94,9.94,0,0,0-9.94,9.94,9.74,9.74,0,0,0,.08,1.22v8.73h79.44a39.82,39.82,0,0,0,39.78-39.74l.08-20.14A29.77,29.77,0,0,0,281.2,71.48Zm145.88-59.6a9.94,9.94,0,0,0-9.94-10H307.75v10a9.94,9.94,0,0,0,9.94,9.94h39.78V161.05h19.89V21.82h49.72ZM239.83,347.16H170.22a10,10,0,0,1-9.95-10V297.44H210a10,10,0,0,0,9.95-9.95v-9.94H160.27V237.77a10,10,0,0,1,9.95-10h59.66v-9.94a9.94,9.94,0,0,0-9.94-9.95H170.22a29.87,29.87,0,0,0-29.84,29.84v99.44a29.87,29.87,0,0,0,29.84,29.84h79.55V357.1A9.94,9.94,0,0,0,239.83,347.16ZM718,207.45H668.24a29.87,29.87,0,0,0-29.84,29.83v99.45a29.87,29.87,0,0,0,29.84,29.83H718a29.87,29.87,0,0,0,29.84-29.83V237.28A29.87,29.87,0,0,0,718,207.45Zm9.95,129.28a10,10,0,0,1-9.95,9.94H668.24a10,10,0,0,1-10-9.94V237.28a10,10,0,0,1,10-9.94H718a10,10,0,0,1,9.95,9.94ZM110.55,207.93H1.15v9.95a10,10,0,0,0,10,9.94H50.88V367.05H70.77V227.82h49.72v-9.94A9.94,9.94,0,0,0,110.55,207.93Zm498,138.74H548.9a10,10,0,0,1-9.94-9.94V237.28a10,10,0,0,1,9.94-9.94h59.67v-10a9.94,9.94,0,0,0-10-9.94H548.9a29.86,29.86,0,0,0-29.83,29.83v99.45a29.86,29.86,0,0,0,29.83,29.83h69.61v-9.94A10,10,0,0,0,608.57,346.67ZM899.92,207.89a10,10,0,0,0-11.15,3.87l-46.5,67.63-46.5-67.63a9.94,9.94,0,0,0-18.14,5.63V366.56h19.89V249.41l36.56,53.17a9.95,9.95,0,0,0,16.39,0L887,249.41V366.56h19.89V217.39A10,10,0,0,0,899.92,207.89ZM359.17,347.16H299.5a10,10,0,0,1-9.95-10V217.88a9.94,9.94,0,0,0-9.94-9.95h-9.95V337.21a29.87,29.87,0,0,0,29.84,29.84h69.61V357.1A9.94,9.94,0,0,0,359.17,347.16Zm129.28,0H418.84a10,10,0,0,1-9.95-10V297.44h49.73a10,10,0,0,0,9.94-9.95v-9.94H408.89V237.77a10,10,0,0,1,9.95-10H478.5v-9.94a9.94,9.94,0,0,0-9.94-9.95H418.84A29.87,29.87,0,0,0,389,237.77v99.44a29.87,29.87,0,0,0,29.84,29.84h79.55V357.1A9.94,9.94,0,0,0,488.45,347.16Z"/></svg>